<svg xmlns="http://www.w3.org/2000/svg" viewBox="0 0 980 412" font-family="'JetBrains Mono', ui-monospace, monospace">
  <defs>
    <marker id="pl-ar" viewBox="0 0 10 10" refX="8" refY="5" markerWidth="7" markerHeight="7" orient="auto-start-reverse">
      <path d="M0 0 L10 5 L0 10 z" fill="#9ba7b4"/>
    </marker>
    <marker id="pl-cv" viewBox="0 0 10 10" refX="8" refY="5" markerWidth="7" markerHeight="7" orient="auto-start-reverse">
      <path d="M0 0 L10 5 L0 10 z" fill="#ff7a1a"/>
    </marker>
    <marker id="pl-in" viewBox="0 0 10 10" refX="8" refY="5" markerWidth="7" markerHeight="7" orient="auto-start-reverse">
      <path d="M0 0 L10 5 L0 10 z" fill="#40a8c4"/>
    </marker>
  </defs>

  <!-- bus de sortie cmd_vel (au-dessus) -->
  <rect x="670" y="24" width="170" height="44" rx="8" fill="#212833" stroke="#ff7a1a" stroke-width="2"/>
  <text x="755" y="51" fill="#e6edf3" font-size="13" text-anchor="middle">/cmd_vel_nav</text>
  <rect x="450" y="24" width="160" height="44" rx="8" fill="#2a323d" stroke="#ff7a1a" stroke-width="2"/>
  <text x="530" y="51" fill="#e6edf3" font-size="14" text-anchor="middle">twist_mux</text>
  <rect x="230" y="24" width="160" height="44" rx="8" fill="#212833" stroke="#ff7a1a" stroke-width="2.5"/>
  <text x="310" y="51" fill="#e6edf3" font-size="14" text-anchor="middle">/cmd_vel</text>

  <line x1="670" y1="46" x2="614" y2="46" stroke="#ff7a1a" stroke-width="2.5" marker-end="url(#pl-cv)"/>
  <line x1="450" y1="46" x2="394" y2="46" stroke="#ff7a1a" stroke-width="2.5" marker-end="url(#pl-cv)"/>

  <!-- chaîne principale -->
  <rect x="20" y="120" width="150" height="56" rx="8" fill="#212833" stroke="#40a8c4" stroke-width="2"/>
  <text x="95" y="144" fill="#e6edf3" font-size="14" text-anchor="middle">goal pose</text>
  <text x="95" y="162" fill="#9ba7b4" font-size="12" text-anchor="middle">(RViz / code)</text>

  <rect x="230" y="120" width="160" height="56" rx="8" fill="#2a323d" stroke="#ff7a1a" stroke-width="2.5"/>
  <text x="310" y="153" fill="#ff7a1a" font-size="14" text-anchor="middle">bt_navigator</text>

  <rect x="450" y="120" width="160" height="56" rx="8" fill="#212833" stroke="#323b48" stroke-width="2"/>
  <text x="530" y="153" fill="#e6edf3" font-size="14" text-anchor="middle">planner_server</text>

  <rect x="670" y="120" width="170" height="56" rx="8" fill="#212833" stroke="#323b48" stroke-width="2"/>
  <text x="755" y="153" fill="#e6edf3" font-size="13" text-anchor="middle">controller_server</text>

  <line x1="170" y1="148" x2="224" y2="148" stroke="#9ba7b4" stroke-width="2.5" marker-end="url(#pl-ar)"/>
  <line x1="390" y1="148" x2="444" y2="148" stroke="#9ba7b4" stroke-width="2.5" marker-end="url(#pl-ar)"/>
  <text x="417" y="136" fill="#9ba7b4" font-size="11" text-anchor="middle">plan</text>
  <line x1="610" y1="148" x2="664" y2="148" stroke="#9ba7b4" stroke-width="2.5" marker-end="url(#pl-ar)"/>
  <text x="637" y="136" fill="#9ba7b4" font-size="11" text-anchor="middle">global</text>

  <!-- MPPI : controller_server -> /cmd_vel_nav (flèche montante) -->
  <line x1="755" y1="116" x2="755" y2="72" stroke="#ff7a1a" stroke-width="2.5" marker-end="url(#pl-cv)"/>
  <text x="800" y="98" fill="#9ba7b4" font-size="11" text-anchor="middle">MPPI</text>

  <!-- costmaps -->
  <rect x="450" y="224" width="160" height="50" rx="8" fill="#212833" stroke="#40a8c4" stroke-width="2"/>
  <text x="530" y="254" fill="#e6edf3" font-size="13" text-anchor="middle">global_costmap</text>
  <rect x="670" y="224" width="170" height="50" rx="8" fill="#212833" stroke="#40a8c4" stroke-width="2"/>
  <text x="755" y="254" fill="#e6edf3" font-size="13" text-anchor="middle">local_costmap</text>

  <rect x="450" y="344" width="160" height="46" rx="8" fill="#212833" stroke="#323b48" stroke-width="2"/>
  <text x="530" y="372" fill="#e6edf3" font-size="14" text-anchor="middle">/map</text>
  <rect x="670" y="344" width="170" height="46" rx="8" fill="#212833" stroke="#323b48" stroke-width="2"/>
  <text x="755" y="372" fill="#e6edf3" font-size="14" text-anchor="middle">/scan</text>

  <line x1="530" y1="344" x2="530" y2="278" stroke="#40a8c4" stroke-width="2.5" marker-end="url(#pl-in)"/>
  <line x1="755" y1="344" x2="755" y2="278" stroke="#40a8c4" stroke-width="2.5" marker-end="url(#pl-in)"/>
  <line x1="530" y1="224" x2="530" y2="180" stroke="#40a8c4" stroke-width="2.5" marker-end="url(#pl-in)"/>
  <line x1="755" y1="224" x2="755" y2="180" stroke="#40a8c4" stroke-width="2.5" marker-end="url(#pl-in)"/>
</svg>
