<svg xmlns="http://www.w3.org/2000/svg" viewBox="0 0 320 56" role="img" aria-label="ROS 2 - Bootcamp">
  <title>ROS 2 - Bootcamp</title>
  <g transform="translate(28, 28)">
    <g fill="#1f6f8b" stroke="#40a8c4" stroke-width="1.5" stroke-linejoin="round">
      <path d="M-4 -16 h8 l1.5 4 a14 14 0 0 1 4 1.5 l4 -1.5 l5.5 5.5 l-1.5 4 a14 14 0 0 1 1.5 4 l4 1.5 v8 l-4 1.5 a14 14 0 0 1 -1.5 4 l1.5 4 l-5.5 5.5 l-4 -1.5 a14 14 0 0 1 -4 1.5 l-1.5 4 h-8 l-1.5 -4 a14 14 0 0 1 -4 -1.5 l-4 1.5 l-5.5 -5.5 l1.5 -4 a14 14 0 0 1 -1.5 -4 l-4 -1.5 v-8 l4 -1.5 a14 14 0 0 1 1.5 -4 l-1.5 -4 l5.5 -5.5 l4 1.5 a14 14 0 0 1 4 -1.5 z"/>
    </g>
    <circle r="5" fill="#0e1116" stroke="#40a8c4" stroke-width="2"/>
    <g fill="none" stroke="#ff7a1a" stroke-width="2" stroke-linecap="round">
      <path d="M14 -18 a10 10 0 0 1 6 6"/>
      <path d="M18 -22 a16 16 0 0 1 8 8"/>
    </g>
  </g>
  <text x="68" y="36" font-family="'Space Grotesk', system-ui, sans-serif"
        font-size="20" font-weight="700" letter-spacing="0.06em" fill="#e6edf3">
    ROS 2 — BOOTCAMP
  </text>
</svg>
